<svg xmlns="http://www.w3.org/2000/svg" width="512" height="512"><rect id="backgroundrect" width="100%" height="100%" x="0" y="0" fill="none" stroke="none"/><g class="currentLayer" style=""><title>Layer 1</title><path d="m263.515625 47.59375c0-12.984375-10.5625-23.546875-23.546875-23.546875s-23.546875 10.5625-23.546875 23.546875 10.5625 23.546875 23.546875 23.546875 23.546875-10.5625 23.546875-23.546875zm-32.0625 0c0-4.695312 3.820313-8.515625 8.515625-8.515625s8.515625 3.820313 8.515625 8.515625-3.820313 8.515625-8.515625 8.515625-8.515625-3.820313-8.515625-8.515625zm0 0" id="svg_1" class="selected" fill="#338bf3" fill-opacity="1"/><path d="m263.515625,47.59375 c0,-12.984375 -10.5625,-23.546875 -23.546875,-23.546875 s-23.546875,10.5625 -23.546875,23.546875 s10.5625,23.546875 23.546875,23.546875 s23.546875,-10.5625 23.546875,-23.546875 zm-32.0625,0 c0,-4.695312 3.820313,-8.515625 8.515625,-8.515625 s8.515625,3.820313 8.515625,8.515625 s-3.820313,8.515625 -8.515625,8.515625 s-8.515625,-3.820313 -8.515625,-8.515625 zm0,0 " class="selected" id="svg_9" fill="#338bf3" fill-opacity="1"/><path d="m440.359375 384.75h-19.96875c-.449219-.886719-1.082031-1.703125-1.894531-2.382812-21.957032-18.292969-58.792969-64.246094-58.792969-166.445313 0-49.15625-13.59375-87.054687-40.402344-112.644531-13.820312-13.195313-28.855469-20.914063-42.664062-25.371094 6.96875-8.425781 10.925781-19.089844 10.925781-30.3125 0-26.242188-21.351562-47.59375-47.59375-47.59375s-47.59375 21.351562-47.59375 47.59375c0 11.289062 3.878906 21.894531 10.886719 30.328125-13.796875 4.457031-28.816407 12.171875-42.628907 25.355469-26.804687 25.589844-40.398437 63.488281-40.398437 112.644531 0 102.664063-37.105469 148.574219-59.222656 166.804687-.710938.582032-1.277344 1.273438-1.714844 2.023438h-19.71875c-12.984375 0-23.546875 10.5625-23.546875 23.546875v24.046875c0 12.984375 10.5625 23.546875 23.546875 23.546875h144.789063c0 .167969-.007813.335937-.007813.5 0 30.664063 24.945313 55.609375 55.609375 55.609375s55.609375-24.945312 55.609375-55.609375c0-.167969-.007813-.332031-.011719-.5h144.792969c12.984375 0 23.546875-10.5625 23.546875-23.546875v-24.046875c0-12.984375-10.5625-23.546875-23.546875-23.546875zm-219.96875-311.132812c-8.253906-6.21875-12.984375-15.707032-12.984375-26.023438 0-17.957031 14.605469-32.5625 32.5625-32.5625 17.953125 0 32.5625 14.605469 32.5625 32.5625 0 10.34375-4.902344 20.003906-13.167969 26.144531-7.519531-1.230469-14.179687-1.597656-19.394531-1.597656-5.222656 0-11.890625.371094-19.425781 1.605469-.050781-.042969-.097657-.089844-.152344-.128906zm60.15625 382.773437c0 22.375-18.203125 40.578125-40.578125 40.578125s-40.578125-18.203125-40.578125-40.578125c0-.164063.003906-.332031.007813-.5h81.140624c0 .167969.007813.332031.007813.5zm168.328125-24.046875c0 4.695312-3.820312 8.515625-8.515625 8.515625h-400.78125c-4.695313 0-8.515625-3.820313-8.515625-8.515625v-24.046875c0-4.695313 3.820312-8.515625 8.515625-8.515625h293.574219c4.148437 0 7.511718-3.363281 7.511718-7.515625 0-4.148437-3.363281-7.515625-7.511718-7.515625h-252.234375c23.855469-24.566406 54.347656-74.4375 54.347656-168.828125 0-95.03125 56.402344-128.75 104.703125-128.75s104.703125 33.71875 104.703125 128.75c0 94.503906 30.613281 144.375 54.347656 168.828125h-31.800781c-4.152344 0-7.515625 3.367188-7.515625 7.515625 0 4.152344 3.363281 7.515625 7.515625 7.515625h73.140625c4.695313 0 8.515625 3.820312 8.515625 8.515625zm0 0" id="svg_2" class="selected" fill="#338bf3" fill-opacity="1"/><path d="m440.359375,384.75 h-19.96875 c-0.44921900000000003,-0.8867190000000001 -1.082031,-1.703125 -1.8945310000000002,-2.382812 c-21.957032,-18.292969 -58.792969,-64.246094 -58.792969,-166.445313 c0,-49.15625 -13.59375,-87.054687 -40.402344,-112.644531 c-13.820312,-13.195313 -28.855469,-20.914063 -42.664062,-25.371094 c6.96875,-8.425781 10.925781,-19.089844 10.925781,-30.3125 c0,-26.242188 -21.351562,-47.59375 -47.59375,-47.59375 s-47.59375,21.351562 -47.59375,47.59375 c0,11.289062 3.878906,21.894531 10.886719,30.328125 c-13.796875,4.457031 -28.816407,12.171875 -42.628907,25.355469 c-26.804687,25.589844 -40.398437,63.488281 -40.398437,112.644531 c0,102.664063 -37.105469,148.574219 -59.222656,166.804687 c-0.7109380000000001,0.582032 -1.277344,1.273438 -1.7148440000000003,2.023438 h-19.71875 c-12.984375,0 -23.546875,10.5625 -23.546875,23.546875 v24.046875 c0,12.984375 10.5625,23.546875 23.546875,23.546875 h144.789063 c0,0.16796900000000006 -0.007813000000000002,0.33593700000000004 -0.007813000000000002,0.5 c0,30.664063 24.945313,55.609375 55.609375,55.609375 s55.609375,-24.945312 55.609375,-55.609375 c0,-0.16796900000000006 -0.007813000000000002,-0.332031 -0.011719000000000004,-0.5 h144.792969 c12.984375,0 23.546875,-10.5625 23.546875,-23.546875 v-24.046875 c0,-12.984375 -10.5625,-23.546875 -23.546875,-23.546875 zm-219.96875,-311.132812 c-8.253906,-6.21875 -12.984375,-15.707032 -12.984375,-26.023438 c0,-17.957031 14.605469,-32.5625 32.5625,-32.5625 c17.953125,0 32.5625,14.605469 32.5625,32.5625 c0,10.34375 -4.902344,20.003906 -13.167969,26.144531 c-7.519531,-1.230469 -14.179687,-1.5976560000000002 -19.394531,-1.5976560000000002 c-5.222656,0 -11.890625,0.37109400000000003 -19.425781,1.605469 c-0.05078100000000001,-0.04296900000000001 -0.09765700000000002,-0.08984400000000002 -0.15234400000000003,-0.12890600000000002 zm60.15625,382.773437 c0,22.375 -18.203125,40.578125 -40.578125,40.578125 s-40.578125,-18.203125 -40.578125,-40.578125 c0,-0.16406300000000004 0.003906000000000001,-0.332031 0.007813000000000002,-0.5 h81.140624 c0,0.16796900000000006 0.007813000000000002,0.332031 0.007813000000000002,0.5 zm168.328125,-24.046875 c0,4.695312 -3.820312,8.515625 -8.515625,8.515625 h-400.78125 c-4.6953130000000005,0 -8.515625,-3.820313 -8.515625,-8.515625 v-24.046875 c0,-4.6953130000000005 3.820312,-8.515625 8.515625,-8.515625 h293.574219 c4.148437,0 7.511718,-3.363281 7.511718,-7.515625 c0,-4.148437 -3.363281,-7.515625 -7.511718,-7.515625 h-252.234375 c23.855469,-24.566406 54.347656,-74.4375 54.347656,-168.828125 c0,-95.03125 56.402344,-128.75 104.703125,-128.75 s104.703125,33.71875 104.703125,128.75 c0,94.503906 30.613281,144.375 54.347656,168.828125 h-31.800781 c-4.152344,0 -7.515625,3.367188 -7.515625,7.515625 c0,4.152344 3.363281,7.515625 7.515625,7.515625 h73.140625 c4.6953130000000005,0 8.515625,3.820312 8.515625,8.515625 zm0,0 " class="selected" fill="#338bf3" fill-opacity="1" id="svg_12"/><path d="m376.234375 151.296875c4.695313 0 8.515625 3.820313 8.515625 8.515625 0 4.148438 3.367188 7.515625 7.515625 7.515625 4.152344 0 7.515625-3.367187 7.515625-7.515625 0-12.984375-10.5625-23.546875-23.546875-23.546875-4.148437 0-7.515625 3.363281-7.515625 7.515625 0 4.148438 3.367188 7.515625 7.515625 7.515625zm0 0" id="svg_3" class="selected" fill="#338bf3" fill-opacity="1"/><path d="m376.234375 111.21875c26.796875 0 48.59375 21.796875 48.59375 48.59375 0 4.148438 3.367187 7.515625 7.515625 7.515625 4.152344 0 7.515625-3.367187 7.515625-7.515625 0-35.082031-28.542969-63.625-63.625-63.625-4.148437 0-7.515625 3.363281-7.515625 7.515625 0 4.148437 3.367188 7.515625 7.515625 7.515625zm0 0" id="svg_4" class="selected" fill="#338bf3" fill-opacity="1"/><path d="m376.234375 56.109375c-4.148437 0-7.515625 3.363281-7.515625 7.515625 0 4.148438 3.367188 7.515625 7.515625 7.515625 48.894531 0 88.671875 39.777344 88.671875 88.671875 0 4.148438 3.367188 7.515625 7.515625 7.515625 4.152344 0 7.515625-3.367187 7.515625-7.515625 0-57.183594-46.519531-103.703125-103.703125-103.703125zm0 0" id="svg_5" class="selected" fill="#338bf3" fill-opacity="1"/><path d="m376.234375,56.109375 c-4.148437,0 -7.515625,3.363281 -7.515625,7.515625 c0,4.148438 3.367188,7.515625 7.515625,7.515625 c48.894531,0 88.671875,39.777344 88.671875,88.671875 c0,4.148438 3.367188,7.515625 7.515625,7.515625 c4.152344,0 7.515625,-3.367187 7.515625,-7.515625 c0,-57.183594 -46.519531,-103.703125 -103.703125,-103.703125 zm0,0 " class="selected" fill="#338bf3" fill-opacity="1" id="svg_13"/><path d="m103.703125 136.265625c-12.984375 0-23.546875 10.5625-23.546875 23.546875 0 4.148438 3.363281 7.515625 7.515625 7.515625 4.148437 0 7.515625-3.367187 7.515625-7.515625 0-4.695312 3.820312-8.515625 8.515625-8.515625 4.148437 0 7.515625-3.367187 7.515625-7.515625 0-4.152344-3.367188-7.515625-7.515625-7.515625zm0 0" id="svg_6" class="selected" fill="#338bf3" fill-opacity="1"/><path d="m103.703125 96.1875c-35.082031 0-63.625 28.542969-63.625 63.625 0 4.148438 3.363281 7.515625 7.515625 7.515625 4.148438 0 7.515625-3.367187 7.515625-7.515625 0-26.796875 21.796875-48.59375 48.59375-48.59375 4.148437 0 7.515625-3.367188 7.515625-7.515625 0-4.152344-3.367188-7.515625-7.515625-7.515625zm0 0" id="svg_7" class="selected" fill="#338bf3" fill-opacity="1"/><path d="m103.703125,96.1875 c-35.082031,0 -63.625,28.542969 -63.625,63.625 c0,4.148438 3.363281,7.515625 7.515625,7.515625 c4.148438,0 7.515625,-3.367187 7.515625,-7.515625 c0,-26.796875 21.796875,-48.59375 48.59375,-48.59375 c4.148437,0 7.515625,-3.367188 7.515625,-7.515625 c0,-4.152344 -3.367188,-7.515625 -7.515625,-7.515625 zm0,0 " class="selected" fill="#338bf3" fill-opacity="1" id="svg_10"/><path d="m103.703125 71.140625c4.148437 0 7.515625-3.367187 7.515625-7.515625 0-4.152344-3.367188-7.515625-7.515625-7.515625-57.183594 0-103.703125 46.519531-103.703125 103.703125 0 4.148438 3.363281 7.515625 7.515625 7.515625 4.148437 0 7.515625-3.367187 7.515625-7.515625 0-48.894531 39.777344-88.671875 88.671875-88.671875zm0 0" id="svg_8" class="selected" fill="#338bf3" fill-opacity="1"/><path d="m103.703125,71.140625 c4.148437,0 7.515625,-3.367187 7.515625,-7.515625 c0,-4.152344 -3.367188,-7.515625 -7.515625,-7.515625 c-57.183594,0 -103.703125,46.519531 -103.703125,103.703125 c0,4.148438 3.363281,7.515625 7.515625,7.515625 c4.148437,0 7.515625,-3.367187 7.515625,-7.515625 c0,-48.894531 39.777344,-88.671875 88.671875,-88.671875 zm0,0 " class="selected" fill="#338bf3" fill-opacity="1" id="svg_11"/></g></svg>